<svg width="143" height="44" viewBox="0 0 143 44" fill="none" xmlns="http://www.w3.org/2000/svg">
<path d="M34.6676 38.5186C35.6804 39.9039 35.3791 41.8454 33.9936 42.8581C32.6081 43.8708 30.6663 43.5677 29.6535 42.1842L20.3116 29.408C19.2988 28.0245 19.6019 26.0812 20.9857 25.0685C21.5384 24.6638 22.1804 24.4694 22.8169 24.4694C23.7745 24.4694 24.7195 24.9116 25.3258 25.7424L26.7166 27.6448C28.9759 25.4893 30.3845 22.4512 30.3845 19.0887C30.3845 12.5633 25.0762 7.25571 18.5499 7.25571C12.0236 7.25571 6.71527 12.5633 6.71527 19.0887C6.71527 25.2486 11.4459 30.3226 17.4658 30.8718L22.1554 37.2884C20.9803 37.5184 19.7749 37.636 18.5499 37.636C13.5946 37.636 8.93705 35.707 5.4332 32.2036C1.92935 28.702 0 24.0451 0 19.0905C0 14.1359 1.92935 9.47896 5.4332 5.9756C8.93705 2.47223 13.5946 0.543152 18.5499 0.543152C23.5052 0.543152 28.1628 2.47223 31.6666 5.9756C35.1705 9.47896 37.0998 14.1359 37.0998 19.0905C37.0998 24.0451 35.1705 28.702 31.6666 32.2054C31.3546 32.5174 31.0354 32.8151 30.7055 33.1004L34.6658 38.5186H34.6676Z" fill="#8951F4"/>
<path d="M62.7983 19.2759C62.7983 21.9092 61.9762 24.1699 60.3322 26.0562L62.6306 28.5505L59.9132 30.9877L57.3918 28.2706C55.9724 28.9623 54.43 29.3064 52.7682 29.3064C49.8545 29.3064 47.4437 28.3579 45.5394 26.4627C43.6332 24.5675 42.681 22.1713 42.681 19.2759C42.681 16.3805 43.6332 13.9861 45.5394 12.0891C47.4455 10.1939 49.8545 9.2454 52.7682 9.2454C55.6818 9.2454 58.0587 10.1975 59.956 12.1034C61.8514 14.0093 62.8001 16.4001 62.8001 19.2759H62.7983ZM52.7379 25.4964C53.3174 25.4964 53.9147 25.4037 54.5317 25.2165L51.4219 21.854L54.1964 19.3597L57.4186 22.8613C58.0534 21.8522 58.3708 20.6576 58.3708 19.2741C58.3708 17.4805 57.8376 15.9918 56.7731 14.8062C55.7085 13.6206 54.3641 13.0269 52.7379 13.0269C51.1116 13.0269 49.744 13.6153 48.6884 14.792C47.6327 15.9687 47.1049 17.4627 47.1049 19.2741C47.1049 21.0855 47.6327 22.5528 48.6884 23.7295C49.744 24.9062 51.0938 25.4946 52.7379 25.4946V25.4964Z" fill="#8951F4"/>
<path d="M77.8461 14.9613V29.0818H73.7556V27.2044C72.766 28.6057 71.327 29.3064 69.4404 29.3064C67.8713 29.3064 66.6106 28.8393 65.6566 27.9051C64.7044 26.9708 64.2283 25.7299 64.2283 24.1788V14.9613H68.3474V23.0859C68.3474 23.8526 68.5667 24.473 69.0053 24.949C69.444 25.4251 70.0289 25.664 70.7564 25.664C71.7282 25.664 72.47 25.2771 72.9835 24.5015C73.497 23.726 73.7538 22.6099 73.7538 21.1533V14.9613H77.8461Z" fill="#8951F4"/>
<path d="M79.8628 9.2454H84.2065V13.1963H79.8628V9.2454ZM79.9466 29.0818V14.9613H84.0657V29.0818H79.9466Z" fill="#8951F4"/>
<path d="M92.0808 29.3064C90.0249 29.3064 88.404 28.6485 87.2182 27.331C86.0307 26.0134 85.4387 24.2448 85.4387 22.0215C85.4387 19.7983 86.0271 18.0297 87.204 16.7121C88.3808 15.3946 89.9874 14.7367 92.0238 14.7367C93.7053 14.7367 94.9749 15.2591 95.8343 16.3056V9.2454H99.9533V29.0818H95.8343V27.6804C95.0497 28.7644 93.798 29.3046 92.079 29.3046L92.0808 29.3064ZM92.7531 25.8048C93.7623 25.8048 94.5701 25.4589 95.1763 24.769C95.7826 24.079 96.0875 23.1626 96.0875 22.0233C96.0875 20.8841 95.7844 19.9694 95.1763 19.2777C94.5683 18.5877 93.7605 18.2418 92.7531 18.2418C91.7456 18.2418 90.9646 18.5877 90.3566 19.2777C89.7485 19.9694 89.4454 20.8841 89.4454 22.0233C89.4454 23.1626 89.7485 24.079 90.3566 24.769C90.9628 25.4607 91.7617 25.8048 92.7531 25.8048Z" fill="#8951F4"/>
<path d="M102.223 29.0818V9.47005H110.349C112.385 9.47005 114.006 10.0263 115.212 11.137C116.417 12.2478 117.02 13.7383 117.02 15.6049C117.02 17.4716 116.417 18.9621 115.212 20.0746C114.006 21.1854 112.385 21.7416 110.349 21.7416H106.651V29.0818H102.223ZM106.651 17.9601H109.901C110.741 17.9601 111.401 17.7498 111.877 17.329C112.353 16.9082 112.592 16.3341 112.592 15.6067C112.592 14.8793 112.353 14.3034 111.877 13.8845C111.401 13.4637 110.741 13.2533 109.901 13.2533H106.651V17.9601Z" fill="#8951F4"/>
<path d="M127.499 18.9122C127.012 18.6876 126.415 18.5752 125.705 18.5752C124.678 18.5752 123.819 19.0103 123.127 19.8785C122.435 20.7468 122.089 22.116 122.089 23.9827V29.0818H117.97V14.9613H122.089V17.3985C122.407 16.6515 122.966 16.0221 123.771 15.5069C124.573 14.9934 125.395 14.7367 126.237 14.7367C126.834 14.7367 127.339 14.8116 127.751 14.9613L127.499 18.9122Z" fill="#8951F4"/>
<path d="M134.84 29.3064C132.654 29.3064 130.866 28.62 129.475 27.2472C128.084 25.8744 127.387 24.1325 127.387 22.0215C127.387 19.9106 128.082 18.1687 129.475 16.7959C130.866 15.4231 132.656 14.7367 134.84 14.7367C137.025 14.7367 138.769 15.4231 140.179 16.7959C141.589 18.1687 142.296 19.9106 142.296 22.0215C142.296 24.1325 141.589 25.8744 140.179 27.2472C138.769 28.62 136.989 29.3064 134.84 29.3064ZM134.84 25.8048C135.83 25.8048 136.634 25.4554 137.249 24.7547C137.866 24.054 138.175 23.143 138.175 22.0233C138.175 20.9037 137.866 19.9926 137.249 19.292C136.632 18.5913 135.83 18.2418 134.84 18.2418C133.851 18.2418 133.02 18.5913 132.403 19.292C131.786 19.9926 131.479 20.9037 131.479 22.0233C131.479 23.143 131.788 24.054 132.403 24.7547C133.02 25.4554 133.833 25.8048 134.84 25.8048Z" fill="#8951F4"/>
</svg>
