<svg width="143" height="44" viewBox="0 0 143 44" fill="none" xmlns="http://www.w3.org/2000/svg">
<path d="M34.6676 38.6185C35.6804 40.0038 35.3791 41.9453 33.9936 42.958C32.6081 43.9707 30.6663 43.6676 29.6535 42.2841L20.3116 29.5079C19.2988 28.1244 19.6019 26.1811 20.9857 25.1684C21.5384 24.7637 22.1804 24.5694 22.8169 24.5694C23.7745 24.5694 24.7195 25.0115 25.3258 25.8423L26.7166 27.7447C28.9759 25.5892 30.3845 22.5511 30.3845 19.1886C30.3845 12.6633 25.0762 7.35562 18.5499 7.35562C12.0236 7.35562 6.71527 12.6633 6.71527 19.1886C6.71527 25.3485 11.4459 30.4226 17.4658 30.9717L22.1554 37.3883C20.9803 37.6183 19.7749 37.7359 18.5499 37.7359C13.5946 37.7359 8.93705 35.8069 5.4332 32.3035C1.92935 28.8019 0 24.145 0 19.1904C0 14.2358 1.92935 9.57888 5.4332 6.07551C8.93705 2.57215 13.5946 0.643066 18.5499 0.643066C23.5052 0.643066 28.1628 2.57215 31.6666 6.07551C35.1705 9.57888 37.0998 14.2358 37.0998 19.1904C37.0998 24.145 35.1705 28.8019 31.6666 32.3053C31.3546 32.6173 31.0354 32.915 30.7055 33.2003L34.6658 38.6185H34.6676Z" fill="white"/>
<path d="M62.7983 19.3758C62.7983 22.0091 61.9762 24.2698 60.3322 26.1561L62.6306 28.6504L59.9132 31.0876L57.3918 28.3705C55.9724 29.0622 54.43 29.4063 52.7682 29.4063C49.8545 29.4063 47.4437 28.4578 45.5394 26.5626C43.6332 24.6674 42.681 22.2712 42.681 19.3758C42.681 16.4804 43.6332 14.086 45.5394 12.189C47.4455 10.2938 49.8545 9.34532 52.7682 9.34532C55.6818 9.34532 58.0587 10.2974 59.956 12.2033C61.8514 14.1092 62.8001 16.5 62.8001 19.3758H62.7983ZM52.7379 25.5963C53.3174 25.5963 53.9147 25.5036 54.5317 25.3164L51.4219 21.9539L54.1964 19.4596L57.4186 22.9612C58.0534 21.9521 58.3708 20.7576 58.3708 19.374C58.3708 17.5805 57.8376 16.0917 56.7731 14.9061C55.7085 13.7205 54.3641 13.1268 52.7379 13.1268C51.1116 13.1268 49.744 13.7152 48.6884 14.8919C47.6327 16.0686 47.1049 17.5626 47.1049 19.374C47.1049 21.1854 47.6327 22.6528 48.6884 23.8295C49.744 25.0062 51.0938 25.5945 52.7379 25.5945V25.5963Z" fill="white"/>
<path d="M77.8461 15.0612V29.1817H73.7556V27.3043C72.766 28.7056 71.327 29.4063 69.4404 29.4063C67.8713 29.4063 66.6106 28.9392 65.6566 28.005C64.7044 27.0707 64.2283 25.8299 64.2283 24.2787V15.0612H68.3474V23.1858C68.3474 23.9525 68.5667 24.5729 69.0053 25.049C69.444 25.525 70.0289 25.7639 70.7564 25.7639C71.7282 25.7639 72.47 25.377 72.9835 24.6014C73.497 23.8259 73.7538 22.7098 73.7538 21.2532V15.0612H77.8461Z" fill="white"/>
<path d="M79.8628 9.34532H84.2065V13.2962H79.8628V9.34532ZM79.9466 29.1817V15.0612H84.0657V29.1817H79.9466Z" fill="white"/>
<path d="M92.0808 29.4063C90.0249 29.4063 88.404 28.7484 87.2182 27.4309C86.0307 26.1133 85.4387 24.3447 85.4387 22.1215C85.4387 19.8982 86.0271 18.1296 87.204 16.812C88.3808 15.4945 89.9874 14.8366 92.0238 14.8366C93.7053 14.8366 94.9749 15.359 95.8343 16.4055V9.34532H99.9533V29.1817H95.8343V27.7803C95.0497 28.8643 93.798 29.4045 92.079 29.4045L92.0808 29.4063ZM92.7531 25.9047C93.7623 25.9047 94.5701 25.5589 95.1763 24.8689C95.7826 24.1789 96.0875 23.2625 96.0875 22.1232C96.0875 20.984 95.7844 20.0694 95.1763 19.3776C94.5683 18.6876 93.7605 18.3417 92.7531 18.3417C91.7456 18.3417 90.9646 18.6876 90.3566 19.3776C89.7485 20.0694 89.4454 20.984 89.4454 22.1232C89.4454 23.2625 89.7485 24.1789 90.3566 24.8689C90.9628 25.5606 91.7617 25.9047 92.7531 25.9047Z" fill="white"/>
<path d="M102.223 29.1817V9.56996H110.349C112.385 9.56996 114.006 10.1262 115.212 11.237C116.417 12.3477 117.02 13.8382 117.02 15.7049C117.02 17.5715 116.417 19.062 115.212 20.1746C114.006 21.2853 112.385 21.8415 110.349 21.8415H106.651V29.1817H102.223ZM106.651 18.0601H109.901C110.741 18.0601 111.401 17.8497 111.877 17.4289C112.353 17.0082 112.592 16.4341 112.592 15.7066C112.592 14.9792 112.353 14.4034 111.877 13.9844C111.401 13.5636 110.741 13.3532 109.901 13.3532H106.651V18.0601Z" fill="white"/>
<path d="M127.499 19.0121C127.012 18.7875 126.415 18.6751 125.705 18.6751C124.678 18.6751 123.819 19.1102 123.127 19.9784C122.435 20.8467 122.089 22.216 122.089 24.0826V29.1817H117.97V15.0612H122.089V17.4984C122.407 16.7514 122.966 16.1221 123.771 15.6068C124.573 15.0933 125.395 14.8366 126.237 14.8366C126.834 14.8366 127.339 14.9115 127.751 15.0612L127.499 19.0121Z" fill="white"/>
<path d="M134.84 29.4063C132.654 29.4063 130.866 28.7199 129.475 27.3471C128.084 25.9743 127.387 24.2324 127.387 22.1215C127.387 20.0105 128.082 18.2686 129.475 16.8958C130.866 15.523 132.656 14.8366 134.84 14.8366C137.025 14.8366 138.769 15.523 140.179 16.8958C141.589 18.2686 142.296 20.0105 142.296 22.1215C142.296 24.2324 141.589 25.9743 140.179 27.3471C138.769 28.7199 136.989 29.4063 134.84 29.4063ZM134.84 25.9047C135.83 25.9047 136.634 25.5553 137.249 24.8546C137.866 24.1539 138.175 23.2429 138.175 22.1232C138.175 21.0036 137.866 20.0925 137.249 19.3919C136.632 18.6912 135.83 18.3417 134.84 18.3417C133.851 18.3417 133.02 18.6912 132.403 19.3919C131.786 20.0925 131.479 21.0036 131.479 22.1232C131.479 23.2429 131.788 24.1539 132.403 24.8546C133.02 25.5553 133.833 25.9047 134.84 25.9047Z" fill="white"/>
</svg>
