<svg width="607" height="779" viewBox="0 0 607 779" fill="none" xmlns="http://www.w3.org/2000/svg">
<g opacity="0.2">
<path d="M-65.5347 -109.433C-65.5347 -294.931 84.8414 -445.307 270.34 -445.307C455.838 -445.307 606.214 -294.931 606.214 -109.433V605.197C606.214 790.695 455.838 941.071 270.34 941.071C84.8414 941.071 -65.5347 790.695 -65.5347 605.197V-109.433Z" stroke="#8F00FF"/>
<path d="M-26.7902 -68.2758C-26.7902 -232.376 106.239 -365.406 270.339 -365.406C434.44 -365.406 567.469 -232.376 567.469 -68.276V564.04C567.469 728.14 434.44 861.17 270.339 861.17C106.239 861.17 -26.7902 728.141 -26.7902 564.04V-68.2758Z" stroke="#8F00FF"/>
<path d="M18.9984 -19.6365C18.9984 -158.448 131.527 -270.977 270.339 -270.977C409.15 -270.977 521.679 -158.448 521.679 -19.6363V515.401C521.679 654.212 409.15 766.741 270.339 766.741C131.527 766.741 18.9984 654.212 18.9984 515.401V-19.6365Z" stroke="#8F00FF"/>
<path d="M84.7471 108.715C84.7471 6.21542 167.839 -76.8771 270.339 -76.8771C372.839 -76.8771 455.931 6.21529 455.931 108.715V504.068C455.931 606.568 372.839 689.661 270.339 689.661C167.839 689.661 84.7471 606.568 84.7471 504.069V108.715Z" stroke="#8F00FF"/>
</g>
</svg>
